<svg xmlns="http://www.w3.org/2000/svg" width="144" height="141" fill="none">
    <path fill="#0094FF" fill-rule="evenodd" d="M65.257 4.069a3.796 3.796 0 0 1-3.172 4.33c-30.46 4.707-53.78 31.046-53.78 62.824 0 30.476 21.449 55.951 50.078 62.137a3.796 3.796 0 0 1-1.604 7.42C24.73 133.855.714 105.348.714 71.223c0-35.58 26.108-65.056 60.212-70.326a3.796 3.796 0 0 1 4.33 3.172z" clip-rule="evenodd"/>
    <path fill="#FFC700" fill-rule="evenodd" d="M83.872 3.846A3.796 3.796 0 0 1 88.383.937c27.939 6.037 49.764 28.467 54.912 56.728a3.796 3.796 0 0 1-7.469 1.36c-4.595-25.231-24.099-45.277-49.046-50.668a3.796 3.796 0 0 1-2.908-4.511z" clip-rule="evenodd"/>
    <path fill="#C0D7E9" fill-rule="evenodd" d="M140.24 78.91a3.795 3.795 0 0 1 3.054 4.415c-5.399 29.643-29.149 52.874-59.058 57.495a3.795 3.795 0 1 1-1.159-7.502c26.703-4.126 47.928-24.884 52.749-51.353a3.796 3.796 0 0 1 4.414-3.054z" clip-rule="evenodd"/>
    <animateTransform attributeName="transform" dur="1.5s" from="0 0 0" repeatCount="indefinite" to="360 0 0" type="rotate"/>
</svg>