<svg width="34" height="34" viewBox="0 0 34 34" fill="none" xmlns="http://www.w3.org/2000/svg">
<path d="M0 0H34V34H0V0Z" fill="#ADADB9"/>
<path d="M24.8108 18.6079V24.1084H21.4626V18.9763C21.4626 17.6871 20.9783 16.8073 19.7663 16.8073C18.8411 16.8073 18.2905 17.4002 18.0483 17.9738C17.96 18.1789 17.9373 18.4643 17.9373 18.7513V24.1084H14.5879C14.5879 24.1084 14.633 15.4163 14.5879 14.5158H17.9369V15.8755C17.9301 15.8857 17.9213 15.8966 17.9149 15.9065H17.9369V15.8755C18.3819 15.2228 19.1765 14.2904 20.9552 14.2904C23.1589 14.2904 24.8108 15.6615 24.8108 18.6079ZM11.0843 9.89165C9.93842 9.89165 9.18896 10.6074 9.18896 11.5487C9.18896 12.4695 9.91674 13.207 11.0398 13.207H11.0622C12.2302 13.207 12.9566 12.4696 12.9566 11.5487C12.9346 10.6074 12.2302 9.89165 11.0843 9.89165ZM9.38789 24.1084H12.736V14.5158H9.38789V24.1084Z" fill="white"/>
</svg>
