<svg width="34" height="34" viewBox="0 0 34 34" fill="none" xmlns="http://www.w3.org/2000/svg">
<path d="M0 0H34V34H0V0Z" fill="#ADADB9"/>
<path d="M15.0512 24.3474C15.0512 24.5059 14.996 24.6383 14.8853 24.744C16.7102 24.7801 20.3065 24.8306 20.0923 24.744C19.878 24.6573 19.8856 24.4432 19.9162 24.347V21.557C19.9162 20.7018 19.6949 20.0758 19.2525 19.6793C19.7376 19.6264 20.1737 19.5468 20.5611 19.4409C20.9483 19.335 21.3486 19.1632 21.7614 18.9251C22.1742 18.6872 22.519 18.3941 22.7959 18.0457C23.0724 17.6973 23.2979 17.2348 23.4723 16.6572C23.6465 16.0796 23.734 15.4164 23.734 14.667C23.734 13.6003 23.3976 12.6922 22.7252 11.9428C23.0403 11.1406 23.0061 10.2414 22.6232 9.24519C22.3848 9.16576 22.0398 9.2143 21.5887 9.39054C21.1378 9.56687 20.746 9.76085 20.4142 9.97253L19.929 10.2898C19.1372 10.0606 18.3199 9.94603 17.4773 9.94603C16.6347 9.94603 15.8176 10.0606 15.0258 10.2898C14.8896 10.193 14.7088 10.0736 14.4831 9.93274C14.2574 9.79184 13.9022 9.6219 13.417 9.42352C12.9318 9.22523 12.5657 9.16562 12.3189 9.24505C11.9443 10.2413 11.9146 11.1405 12.2296 11.9426C11.5571 12.692 11.2208 13.6 11.2208 14.6669C11.2208 15.4162 11.308 16.0774 11.4825 16.6505C11.6569 17.2234 11.8804 17.6864 12.1527 18.0391C12.425 18.3916 12.7676 18.687 13.1806 18.925C13.5934 19.1632 13.9935 19.3351 14.3807 19.441C14.7681 19.5467 15.2043 19.6262 15.6894 19.679C15.3491 19.9964 15.1405 20.4503 15.0639 21.0413C14.8851 21.1293 14.6935 21.1956 14.4894 21.2397C14.285 21.2836 14.0424 21.3056 13.7616 21.3056C13.4807 21.3056 13.2019 21.211 12.9253 21.0214C12.6486 20.8318 12.4126 20.5563 12.2167 20.1948C12.0549 19.9128 11.8485 19.6836 11.5975 19.5073C11.3463 19.3309 11.1357 19.2254 10.9654 19.19L10.7102 19.1505C10.5313 19.1505 10.4081 19.1698 10.3399 19.2096C10.2717 19.2494 10.2505 19.3001 10.2761 19.3619C10.3016 19.4237 10.3398 19.4854 10.3909 19.5471C10.442 19.6087 10.4973 19.6619 10.5569 19.7059L10.6463 19.7722C10.8335 19.8603 11.0186 20.0277 11.2017 20.2746C11.3847 20.5213 11.5187 20.7464 11.6038 20.949L11.7315 21.2533C11.8421 21.5881 12.0294 21.8593 12.2932 22.0665C12.5571 22.2736 12.8422 22.4059 13.1487 22.4629C13.4551 22.5204 13.751 22.5514 14.036 22.5555C14.3212 22.5597 14.5574 22.5447 14.7447 22.5092L15.0384 22.4565C15.0384 22.7913 15.0404 23.1836 15.0448 23.6333C15.049 24.083 15.0512 24.3209 15.0512 24.3474Z" fill="white"/>
</svg>
