<svg width="34" height="34" viewBox="0 0 34 34" fill="none" xmlns="http://www.w3.org/2000/svg">
<path d="M0 0H34V34H0V0Z" fill="#ADADB9"/>
<path d="M26.2987 11.2341C25.6142 11.5374 24.8797 11.7431 24.108 11.8349C24.896 11.3631 25.4991 10.6147 25.785 9.72565C25.0459 10.1626 24.2301 10.4799 23.3608 10.6519C22.6647 9.90928 21.6745 9.44675 20.5763 9.44675C18.4694 9.44675 16.7611 11.1551 16.7611 13.2608C16.7611 13.5595 16.7948 13.8512 16.8599 14.1301C13.6896 13.9709 10.8784 12.452 8.99695 10.144C8.66806 10.7065 8.48096 11.3619 8.48096 12.0615C8.48096 13.3852 9.155 14.5531 10.1777 15.2364C9.55245 15.2155 8.96441 15.0435 8.4496 14.7576V14.8053C8.4496 16.6531 9.76513 18.1952 11.5095 18.5462C11.1899 18.6322 10.8529 18.6798 10.5042 18.6798C10.2579 18.6798 10.0196 18.6554 9.78604 18.6089C10.2718 20.1255 11.6803 21.2283 13.3491 21.2586C12.0441 22.2812 10.3985 22.889 8.61115 22.889C8.30319 22.889 7.99986 22.8704 7.70121 22.8367C9.38978 23.921 11.3944 24.5532 13.549 24.5532C20.5671 24.5532 24.4033 18.7403 24.4033 13.699L24.3905 13.2051C25.14 12.6705 25.7885 11.9988 26.2987 11.2341Z" fill="white"/>
</svg>
