<svg width="34" height="34" viewBox="0 0 34 34" fill="none" xmlns="http://www.w3.org/2000/svg">
<path d="M0 0H34V34H0V0Z" fill="#ADADB9"/>
<path d="M21.6485 7.70514L19.2369 7.70127C16.5275 7.70127 14.7765 9.49769 14.7765 12.2781V14.3884H12.3517C12.1422 14.3884 11.9725 14.5582 11.9725 14.7678V17.8253C11.9725 18.0348 12.1424 18.2045 12.3517 18.2045H14.7765V25.9195C14.7765 26.1291 14.9462 26.2987 15.1557 26.2987H18.3194C18.5289 26.2987 18.6986 26.1289 18.6986 25.9195V18.2045H21.5338C21.7433 18.2045 21.913 18.0348 21.913 17.8253L21.9142 14.7678C21.9142 14.6672 21.8741 14.5708 21.8031 14.4996C21.7321 14.4284 21.6354 14.3884 21.5348 14.3884H18.6986V12.5995C18.6986 11.7397 18.9035 11.3032 20.0235 11.3032L21.6481 11.3026C21.8575 11.3026 22.0271 11.1328 22.0271 10.9234V8.08435C22.0271 7.8752 21.8577 7.70553 21.6485 7.70514Z" fill="white"/>
</svg>
