<svg width="34" height="34" viewBox="0 0 34 34" fill="none" xmlns="http://www.w3.org/2000/svg">
<path d="M0 0H34V34H0V0Z" fill="#ADADB9"/>
<path d="M26.2001 21.4632C26.1776 21.4126 26.1566 21.3706 26.1371 21.3369C25.8144 20.7305 25.1978 19.9862 24.2876 19.1038L24.2684 19.0836L24.2588 19.0737L24.249 19.0635H24.2393C23.8262 18.6526 23.5646 18.3763 23.4551 18.2349C23.2546 17.9654 23.2097 17.6927 23.3193 17.4163C23.3967 17.2075 23.6874 16.7666 24.1907 16.0929C24.4555 15.7358 24.6652 15.4497 24.8201 15.2341C25.9369 13.6847 26.4211 12.6947 26.2726 12.2635L26.2149 12.1628C26.1761 12.1021 26.0761 12.0466 25.9149 11.996C25.7533 11.9455 25.5468 11.9372 25.295 11.9708L22.5064 11.9909C22.4612 11.9742 22.3967 11.9758 22.3126 11.996C22.2287 12.0163 22.1867 12.0264 22.1867 12.0264L22.1382 12.0517L22.0997 12.0821C22.0674 12.1022 22.0319 12.1376 21.9931 12.1881C21.9545 12.2385 21.9223 12.2976 21.8965 12.3649C21.5929 13.18 21.2477 13.9378 20.8603 14.6383C20.6214 15.056 20.4021 15.418 20.2017 15.7245C20.0017 16.0309 19.8338 16.2566 19.6984 16.4013C19.5627 16.5462 19.4403 16.6622 19.3303 16.7499C19.2206 16.8376 19.1367 16.8746 19.0787 16.8611C19.0206 16.8475 18.9658 16.8341 18.9139 16.8206C18.8236 16.76 18.751 16.6775 18.6962 16.5731C18.6412 16.4687 18.6042 16.3373 18.5848 16.179C18.5655 16.0206 18.5541 15.8843 18.5509 15.7698C18.5479 15.6553 18.5492 15.4935 18.5558 15.2847C18.5625 15.0758 18.5655 14.9345 18.5655 14.8604C18.5655 14.6044 18.5703 14.3265 18.5799 14.0268C18.5897 13.727 18.5976 13.4895 18.6042 13.3146C18.6108 13.1394 18.6138 12.9541 18.6138 12.7588C18.6138 12.5634 18.6024 12.4102 18.5799 12.299C18.5577 12.188 18.5235 12.0802 18.4785 11.9757C18.4332 11.8713 18.3669 11.7905 18.28 11.7332C18.1929 11.6759 18.0845 11.6305 17.9556 11.5967C17.6135 11.5159 17.1778 11.4722 16.6483 11.4654C15.4477 11.452 14.6762 11.5329 14.3341 11.708C14.1985 11.782 14.0759 11.8831 13.9662 12.011C13.85 12.1593 13.8338 12.2402 13.9177 12.2535C14.305 12.314 14.5793 12.4589 14.7407 12.6879L14.7988 12.8092C14.8441 12.8968 14.8893 13.0518 14.9345 13.274C14.9796 13.4963 15.0087 13.7421 15.0216 14.0114C15.0538 14.5032 15.0538 14.9242 15.0216 15.2745C14.9892 15.6248 14.9587 15.8976 14.9296 16.0929C14.9004 16.2883 14.8569 16.4465 14.7988 16.5678C14.7407 16.689 14.702 16.7631 14.6826 16.79C14.6632 16.8169 14.6471 16.8339 14.6342 16.8405C14.5503 16.8741 14.4631 16.8911 14.3728 16.8911C14.2823 16.8911 14.1726 16.8439 14.0436 16.7496C13.9145 16.6552 13.7806 16.5256 13.6418 16.3606C13.503 16.1955 13.3464 15.9648 13.172 15.6684C12.9978 15.3721 12.8171 15.0218 12.6298 14.6177L12.475 14.3246C12.3781 14.136 12.2459 13.8615 12.078 13.5012C11.9101 13.1408 11.7616 12.7921 11.6326 12.4553C11.581 12.3138 11.5035 12.2062 11.4002 12.1321L11.3518 12.1017C11.3195 12.0748 11.2678 12.0462 11.1969 12.0158C11.1258 11.9854 11.0517 11.9636 10.9742 11.9501L8.32104 11.9703C8.04992 11.9703 7.86597 12.0343 7.76911 12.1623L7.73034 12.2229C7.71098 12.2566 7.70121 12.3105 7.70121 12.3846C7.70121 12.4587 7.72057 12.5497 7.75934 12.6574C8.14665 13.6072 8.56783 14.5233 9.0229 15.4057C9.47797 16.2881 9.87342 16.9989 10.209 17.5374C10.5447 18.0764 10.8868 18.585 11.2354 19.0631C11.584 19.5414 11.8148 19.8479 11.9277 19.9826C12.0407 20.1175 12.1295 20.2184 12.194 20.2857L12.4362 20.5281C12.5911 20.6898 12.8186 20.8835 13.1188 21.1091C13.419 21.3349 13.7514 21.5571 14.1161 21.7762C14.4809 21.9949 14.9053 22.1734 15.3895 22.3115C15.8736 22.4497 16.3448 22.5051 16.8032 22.4784H17.9168C18.1426 22.458 18.3137 22.3839 18.43 22.256L18.4685 22.2054C18.4944 22.1652 18.5187 22.1027 18.5411 22.0187C18.5637 21.9345 18.575 21.8417 18.575 21.7408C18.5684 21.4512 18.5895 21.1902 18.6378 20.9579C18.6861 20.7256 18.7411 20.5504 18.8026 20.4325C18.8641 20.3146 18.9335 20.2152 19.0107 20.1346C19.0881 20.0538 19.1432 20.0048 19.1756 19.988C19.2077 19.971 19.2334 19.9595 19.2528 19.9526C19.4077 19.8988 19.59 19.9509 19.8 20.1094C20.0099 20.2677 20.2067 20.4631 20.3908 20.6954C20.5747 20.9279 20.7958 21.1888 21.054 21.4784C21.3123 21.7681 21.5382 21.9834 21.7317 22.1251L21.9253 22.2463C22.0546 22.3272 22.2225 22.4013 22.4291 22.4687C22.6353 22.536 22.816 22.5528 22.9712 22.5192L25.4499 22.4788C25.6951 22.4788 25.8858 22.4365 26.0212 22.3524C26.1567 22.2682 26.2373 22.1755 26.2633 22.0746C26.2892 21.9736 26.2906 21.859 26.2682 21.7309C26.2452 21.6031 26.2226 21.5137 26.2001 21.4632Z" fill="white"/>
</svg>
