<svg width="34" height="34" fill="none" xmlns="http://www.w3.org/2000/svg"><path d="M0 0h34v34H0V0z" fill="#ADADB9"/><path d="M24.81 18.608v5.5h-3.347v-5.132c0-1.289-.485-2.169-1.697-2.169-.925 0-1.475.593-1.718 1.167-.088.205-.11.49-.11.777v5.357h-3.35s.045-8.692 0-9.592h3.349v1.36c-.007.01-.016.02-.022.03h.022v-.03c.445-.653 1.24-1.586 3.018-1.586 2.204 0 3.856 1.372 3.856 4.318zM11.085 9.892c-1.146 0-1.895.715-1.895 1.657 0 .92.728 1.658 1.85 1.658h.023c1.168 0 1.895-.737 1.895-1.658-.022-.942-.727-1.657-1.873-1.657zM9.388 24.108h3.348v-9.592H9.388v9.592z" fill="#fff"/></svg>