<svg width="34" height="34" fill="none" xmlns="http://www.w3.org/2000/svg"><path d="M0 0h34v34H0V0z" fill="#ADADB9"/><path d="M26.299 11.234a7.618 7.618 0 0 1-2.191.6 3.83 3.83 0 0 0 1.677-2.108 7.691 7.691 0 0 1-2.424.926 3.815 3.815 0 0 0-6.5 3.478 10.831 10.831 0 0 1-7.864-3.986 3.786 3.786 0 0 0-.516 1.918c0 1.323.674 2.491 1.697 3.174a3.815 3.815 0 0 1-1.728-.478v.047a3.819 3.819 0 0 0 3.06 3.741 3.87 3.87 0 0 1-1.006.134c-.246 0-.484-.025-.718-.071a3.817 3.817 0 0 0 3.563 2.65 7.655 7.655 0 0 1-4.738 1.63c-.308 0-.611-.019-.91-.052a10.784 10.784 0 0 0 5.848 1.716c7.018 0 10.854-5.813 10.854-10.854l-.012-.494a7.619 7.619 0 0 0 1.908-1.97z" fill="#fff"/></svg>