<svg width="34" height="34" fill="none" xmlns="http://www.w3.org/2000/svg"><path d="M0 0h34v34H0V0z" fill="#ADADB9"/><path d="M15.051 24.347a.525.525 0 0 1-.166.397c1.825.036 5.421.087 5.207 0-.214-.087-.206-.3-.176-.397v-2.79c0-.855-.221-1.481-.663-1.878a8.46 8.46 0 0 0 1.308-.238 5.12 5.12 0 0 0 1.2-.516 3.6 3.6 0 0 0 1.035-.88c.276-.348.502-.81.676-1.388.174-.577.262-1.24.262-1.99 0-1.067-.336-1.975-1.009-2.724.315-.802.281-1.702-.102-2.698-.238-.08-.583-.03-1.034.146a6.77 6.77 0 0 0-1.175.582l-.485.317a8.773 8.773 0 0 0-2.452-.344c-.842 0-1.66.115-2.451.344a11.212 11.212 0 0 0-.543-.357c-.226-.141-.58-.311-1.066-.51-.485-.198-.851-.257-1.098-.178-.375.996-.404 1.896-.09 2.698-.672.749-1.008 1.657-1.008 2.724 0 .75.087 1.41.261 1.984.175.572.398 1.035.67 1.388a3.47 3.47 0 0 0 1.029.886c.412.238.813.41 1.2.516.387.106.823.185 1.308.238-.34.317-.549.771-.625 1.362-.179.088-.37.155-.575.199a3.508 3.508 0 0 1-.727.066c-.281 0-.56-.095-.837-.285-.276-.19-.512-.465-.708-.826a2.108 2.108 0 0 0-.62-.688c-.25-.176-.461-.282-.632-.317l-.255-.04c-.179 0-.302.02-.37.06-.068.04-.09.09-.064.152a.728.728 0 0 0 .115.185.95.95 0 0 0 .166.159l.09.066c.187.088.372.256.555.503.183.246.317.471.402.674l.128.304c.11.335.297.606.561.814.264.207.55.339.856.396.306.057.602.088.887.092.285.005.521-.01.709-.046l.293-.053c0 .335.002.728.007 1.177l.006.714z" fill="#fff"/></svg>