<svg width="34" height="34" fill="none" xmlns="http://www.w3.org/2000/svg"><path d="M0 0h34v34H0V0z" fill="#ADADB9"/><path d="M26.2 21.463a1.357 1.357 0 0 0-.063-.126c-.323-.607-.94-1.35-1.85-2.233l-.019-.02-.01-.01-.009-.01h-.01c-.413-.411-.674-.688-.784-.83-.2-.269-.245-.541-.136-.818.078-.209.368-.65.872-1.323a74.4 74.4 0 0 0 .63-.859c1.116-1.55 1.6-2.54 1.452-2.97l-.058-.101c-.039-.06-.139-.116-.3-.167-.162-.05-.368-.059-.62-.025l-2.789.02a.348.348 0 0 0-.193.005l-.126.03-.049.026-.038.03a.44.44 0 0 0-.107.106.703.703 0 0 0-.096.177 16.825 16.825 0 0 1-1.037 2.273c-.239.418-.458.78-.658 1.087a5.2 5.2 0 0 1-.504.676 3.529 3.529 0 0 1-.368.349c-.11.088-.193.125-.251.111a6.939 6.939 0 0 1-.165-.04.662.662 0 0 1-.218-.248 1.145 1.145 0 0 1-.111-.394 4.496 4.496 0 0 1-.034-.41 8.88 8.88 0 0 1 .005-.484c.006-.21.01-.35.01-.425 0-.256.004-.534.014-.833l.024-.712a14 14 0 0 0 .01-.556c0-.196-.012-.349-.034-.46a1.62 1.62 0 0 0-.101-.323.54.54 0 0 0-.199-.243 1.093 1.093 0 0 0-.324-.136c-.343-.081-.778-.125-1.308-.132-1.2-.013-1.972.068-2.314.243a1.314 1.314 0 0 0-.368.303c-.116.148-.132.23-.048.243.387.06.661.205.823.434l.058.121c.045.088.09.243.136.465a4.9 4.9 0 0 1 .087.737c.032.492.032.913 0 1.264-.033.35-.063.623-.092.818a1.694 1.694 0 0 1-.247.697.169.169 0 0 1-.049.05.697.697 0 0 1-.261.051c-.09 0-.2-.047-.33-.141a2.366 2.366 0 0 1-.401-.39 5.207 5.207 0 0 1-.47-.692 12.286 12.286 0 0 1-.542-1.05l-.155-.293a23.5 23.5 0 0 1-.397-.824c-.168-.36-.316-.709-.445-1.046a.663.663 0 0 0-.233-.323l-.048-.03a.656.656 0 0 0-.155-.086 1 1 0 0 0-.223-.066l-2.653.02c-.271 0-.455.064-.552.192l-.039.06a.339.339 0 0 0-.029.163c0 .074.02.165.058.272.388.95.809 1.866 1.264 2.749.455.882.85 1.593 1.186 2.131.336.54.678 1.048 1.026 1.526.349.478.58.785.693.92.113.134.201.235.266.303l.242.242c.155.162.383.356.683.581.3.226.632.448.997.667.365.219.79.397 1.274.535a4.23 4.23 0 0 0 1.413.167h1.114c.226-.02.397-.094.513-.222l.038-.05a.687.687 0 0 0 .073-.187c.023-.084.034-.177.034-.278a3.47 3.47 0 0 1 .063-.783c.048-.232.103-.408.165-.525a1.29 1.29 0 0 1 .373-.445.607.607 0 0 1 .077-.035c.155-.054.337-.002.547.156.21.159.407.354.59.586.185.233.406.494.664.783.258.29.484.505.678.647l.193.121c.13.081.297.155.504.223.206.067.387.084.542.05l2.479-.04c.245 0 .436-.043.571-.127.136-.084.216-.177.242-.277a.816.816 0 0 0 .005-.344 1.316 1.316 0 0 0-.068-.268z" fill="#fff"/></svg>